<?xml version="1.0" standalone="no"?>
<!DOCTYPE svg PUBLIC "-//W3C//DTD SVG 20010904//EN"
 "http://www.w3.org/TR/2001/REC-SVG-20010904/DTD/svg10.dtd">
<svg version="1.0" xmlns="http://www.w3.org/2000/svg"
 width="249.000000pt" height="249.000000pt" viewBox="0 0 249.000000 249.000000"
 preserveAspectRatio="xMidYMid meet">
<g transform="translate(0.000000,249.000000) scale(0.100000,-0.100000)"
fill="#000000" stroke="none">
<path d="M805 1976 c-22 -14 -49 -32 -60 -40 -11 -8 -146 -106 -300 -217 -300
-216 -374 -271 -419 -313 -27 -26 -28 -30 -22 -89 4 -34 11 -85 17 -113 11
-57 2 -50 159 -116 52 -22 116 -55 142 -74 47 -35 137 -77 398 -186 80 -33
158 -66 174 -74 17 -8 47 -17 68 -20 30 -5 38 -3 38 9 0 8 -13 20 -29 25 -23
8 -32 20 -41 51 -11 43 -29 57 -105 81 -48 15 -97 48 -90 60 6 10 9 9 110 -19
78 -21 97 -15 71 23 -9 15 -12 26 -7 26 16 0 175 -71 181 -81 4 -5 6 -59 5
-120 l-1 -111 85 -39 c121 -56 131 -58 132 -23 3 75 -10 91 -103 131 -104 46
-74 73 37 34 53 -19 55 -19 65 -2 5 10 6 21 3 25 -4 4 5 18 20 32 30 28 70
100 85 157 13 46 35 32 -250 146 -316 126 -578 220 -634 227 -54 6 -186 58
-204 79 -7 8 -9 19 -6 24 16 25 496 393 547 420 24 12 38 10 130 -19 195 -59
473 -152 606 -201 73 -27 219 -78 325 -115 262 -89 270 -92 312 -109 36 -15
36 -16 20 -40 -14 -21 -83 -85 -268 -248 -12 -10 -43 -40 -71 -65 -61 -57
-159 -141 -199 -169 l-30 -21 -65 23 c-36 13 -92 33 -125 45 -32 11 -60 19
-62 17 -10 -10 -74 -173 -74 -189 0 -21 34 -44 130 -88 96 -44 120 -65 120
-104 0 -17 -4 -37 -9 -44 -8 -14 -21 -11 -141 38 -66 27 -129 40 -136 29 -7
-12 66 -56 153 -90 107 -43 135 -46 175 -19 27 19 141 115 184 155 6 5 46 42
89 80 43 39 90 81 105 95 15 14 67 62 116 106 49 45 103 95 120 110 17 16 72
67 123 113 l91 84 0 88 c0 119 -6 132 -77 159 -140 53 -823 280 -1033 344 -63
19 -189 58 -280 86 -209 65 -242 69 -295 36z m-668 -690 c39 -13 87 -26 108
-29 20 -3 39 -8 43 -11 10 -10 10 -146 0 -152 -5 -3 -55 17 -112 45 -77 37
-105 56 -110 73 -6 24 -8 98 -3 98 2 0 35 -11 74 -24z m381 -38 c4 -21 -22
-29 -44 -14 -26 19 -12 48 18 37 13 -4 24 -15 26 -23z m155 -65 c11 -10 -13
-32 -29 -26 -20 8 -17 33 4 33 10 0 22 -3 25 -7z m-70 -65 c100 -38 113 -48
98 -76 -6 -11 -11 -45 -12 -75 -3 -76 -6 -80 -60 -62 -51 17 -99 55 -99 77 0
22 -22 38 -104 78 -42 21 -72 42 -74 53 -4 21 12 19 80 -7 58 -23 81 -16 72
19 -8 32 -1 32 99 -7z m177 -79 c0 -12 -27 -11 -35 1 -11 17 5 32 21 19 8 -6
14 -15 14 -20z m86 -30 c9 -15 -33 -10 -45 5 -9 11 -6 12 14 8 14 -2 28 -8 31
-13z m242 -2 c2 -12 -3 -17 -17 -17 -15 0 -21 6 -21 21 0 25 33 22 38 -4z"/>
<path d="M557 1073 c-4 -3 -7 -23 -7 -43 0 -57 63 -115 86 -78 4 6 -4 19 -19
30 -34 24 -34 36 -2 48 32 12 32 28 -1 40 -30 12 -48 13 -57 3z"/>
<path d="M810 1736 c-59 -40 -253 -200 -264 -218 -6 -9 -8 -20 -4 -23 14 -14
144 -52 152 -45 4 5 10 34 12 66 1 31 8 69 14 84 12 30 66 75 74 62 3 -5 -10
-39 -29 -76 -25 -49 -32 -73 -26 -89 4 -12 37 -40 73 -62 37 -22 75 -51 85
-64 11 -13 27 -22 38 -20 18 4 18 5 1 22 -28 28 -16 28 42 0 58 -27 69 -46 20
-33 l-33 9 25 -20 c14 -11 68 -35 120 -53 52 -19 135 -48 185 -66 75 -27 95
-31 118 -22 35 13 70 0 85 -33 14 -31 113 -76 181 -82 49 -5 59 -2 81 19 21
20 131 111 137 113 0 0 -9 32 -22 70 -27 85 -25 97 18 83 51 -17 67 -36 60
-71 l-6 -30 25 19 c40 29 53 54 36 70 -19 18 -140 65 -388 149 -265 90 -373
129 -425 151 -59 25 -285 101 -320 107 -22 5 -40 -1 -65 -17z m143 -81 c-4
-15 -36 -12 -41 3 -3 9 3 13 19 10 13 -1 23 -7 22 -13z m99 -16 c29 -12 175
-65 323 -119 280 -100 335 -124 335 -140 0 -13 -19 -12 -55 4 -51 22 -110 -6
-141 -65 -13 -26 -13 -37 2 -87 6 -22 4 -21 -103 17 -169 61 -380 141 -440
168 -54 23 -61 34 -26 39 84 13 117 108 62 178 -25 31 -24 32 43 5z m-85 -73
c11 -4 23 -13 26 -20 4 -11 -1 -11 -33 0 -40 14 -85 10 -107 -8 -16 -13 -28
-4 -20 16 9 22 82 29 134 12z m168 -257 c16 -16 -20 -10 -41 7 -18 14 -18 15
6 8 14 -3 29 -10 35 -15z m601 -6 c25 -16 55 -86 44 -103 -12 -20 -28 -3 -23
24 7 36 -28 66 -76 66 -57 0 -91 -15 -91 -40 0 -29 -19 -62 -31 -55 -14 9 -11
71 5 85 26 21 111 49 131 43 11 -3 29 -12 41 -20z m-506 -35 c0 -11 -7 -10
-31 2 -28 16 -23 32 6 18 14 -6 25 -15 25 -20z m84 -24 c9 -3 14 -10 11 -15
-7 -10 -35 0 -35 12 0 11 3 11 24 3z m396 -73 c0 -12 -29 -23 -42 -15 -6 4 -5
10 3 15 18 11 39 11 39 0z"/>
<path d="M1213 1542 c-12 -2 -36 -17 -54 -33 -40 -37 -32 -48 60 -79 l70 -24
44 22 c52 26 84 28 115 6 28 -19 28 -38 0 -57 -31 -20 -16 -32 18 -15 34 16
63 63 48 78 -10 10 -206 86 -254 99 -14 4 -35 5 -47 3z"/>
<path d="M987 909 c-12 -7 -17 -23 -17 -57 0 -55 12 -72 52 -72 33 0 35 9 8
38 -24 25 -24 31 -5 52 14 15 13 18 -2 33 -13 11 -23 13 -36 6z"/>
</g>
</svg>